<svg xmlns="http://www.w3.org/2000/svg"><symbol id="mecha-stilts" viewBox="0 0 264 264"><path d="M130.9 130.8V89l-29.8 41.8h29.8zm-55.6 19.6H131v22.97H75.3zm59.8-65.8v46.1h57.1a61.5 61.5 0 0 0-57.1-46.1zm0 65.8h9.3v22.97h-9.3zm-6.2-65.6c-26.5 1.7-48.6 20.9-55 45.9H96zm19.6 65.6h42.2v22.97h-42.2z"/><path d="M133 5L23.9 68v126L133 257l109.1-63V68zm89.2 145.4h-27.3v25a2 2 0 0 1-2.1 2.1H73.2a2 2 0 0 1-2.1-2.1v-25H43.8a2.1 2.1 0 0 1 0-4.1h15.5v-13.4a2 2 0 0 1 2.1-2.1h8.1a65.6 65.6 0 0 1 63.3-50.3c.2-.2.4-.2.8 0 30.6.2 56.1 21.7 62.9 50.3h8.1a2 2 0 0 1 2.1 2.1v13.5h15.5a2.1 2.1 0 1 1 0 4.1z"/><path d="M63.5 134.9h139.1v11.38H63.5z"/></symbol><symbol id="space-bubbles" viewBox="0 0 264 264"><path d="M100.8 152.5H87.1L68.9 174l2.9 4.2 35-18.4-6-7.3zm73.7-19a50 50 0 0 0 2.5-15.7 44.8 44.8 0 0 0-89.6 0c0 5.4.4 11 2.5 15.7zm-99 4.1h113.2v10.76H75.5zm30.7 14.9l17.3 20.9h14.9l17.4-20.9h-49.6zM90 173.4h28.2l-8.5-10.3L90 173.4z"/><path d="M131 5L21.9 68v126L131 257l109.1-63V68zm66.2 170.3l-4.8 6.8a2.2 2.2 0 0 1-2.7.6l-9.9-5.2H82l-10 5.2a2.3 2.3 0 0 1-2.7-.6l-4.8-6.8a2.2 2.2 0 0 1 .2-2.5L82 152.5h-8.5a2 2 0 0 1-2.1-2.1v-14.9a2 2 0 0 1 2.1-2.1h12a57.8 57.8 0 0 1-2.3-15.7 48.9 48.9 0 0 1 97.9 0 50.8 50.8 0 0 1-2.3 15.7h12a2 2 0 0 1 2.1 2.1v14.9a2 2 0 0 1-2.1 2.1h-10.6l17 20.3a2.2 2.2 0 0 1 0 2.5z"/><path d="M143.8 173.4H172l-19.7-10.3-8.5 10.3zm17.4-20.9l-6.2 7.3 35.2 18.4 2.9-4-18.2-21.7h-13.7z"/></symbol><symbol id="super-domes" viewBox="0 0 264 264"><path d="M125.4 161.4h13.2v13.04h-13.2zm-24.9 0h20.7v13.04h-20.7zm42.3 0h20.7v13.04h-20.7zM132 75.1c-24.2 0-44.5 14.7-45.5 41.4h91.1c-1.1-26.7-21.4-41.4-45.6-41.4zm-48.8 86.3h13.2v13.04H83.2zm-12.5-4.2h122.6v-36.6H70.7zm60.3-14h50.5a2.1 2.1 0 0 1 0 4.1H131a2.1 2.1 0 1 1 0-4.1z"/><path d="M132 6L22.9 69v126L132 258l109.1-63V69zm65.4 153.3a2 2 0 0 1-2.1 2.1H185v13h10.3a2.1 2.1 0 1 1 0 4.1H68.7a2.1 2.1 0 1 1 0-4.1H79v-13H68.7a2 2 0 0 1-2.1-2.1v-40.8a2 2 0 0 1 2.1-2.1h13.6c1-29.4 23-45.5 49.7-45.5s48.6 16.1 49.7 45.5h13.7a2 2 0 0 1 2.1 2.1z"/><path d="M167.6 161.4h13.2v13.04h-13.2z"/></symbol></svg>